<svg width="1253" height="228" viewBox="0 0 1253 228" fill="none" xmlns="http://www.w3.org/2000/svg">
<g clip-path="url(#clip0_8943_56621)">
<path d="M197.614 137.546C201.644 130.682 211.653 130.682 215.639 137.546L258.466 210.71C262.496 217.575 257.447 226.123 249.431 226.123H163.778C155.761 226.123 150.757 217.575 154.743 210.71L197.569 137.546H197.614Z" fill="#FF394A"/>
<path d="M171.746 88.8279C175.643 82.0075 175.643 73.5927 171.746 66.7281L136.625 5.4776C132.684 -1.38706 122.852 -1.38706 118.91 5.4776L1.36937 210.665C-2.57228 217.529 2.34371 226.121 10.227 226.121H80.4237C88.2627 226.121 95.4817 221.914 99.379 215.093L171.702 88.8279H171.746Z" fill="#FF394A"/>
<path d="M414.674 209.025V226.12H404.488C392.308 226.12 387.747 220.85 387.57 211.904C381.369 220.983 371.714 227.183 357.188 227.183C336.992 227.183 322.953 217.174 322.953 199.901C322.953 180.592 336.594 170.051 362.458 170.051H385.577V164.427C385.577 154.063 378.136 147.686 365.381 147.686C353.911 147.686 346.293 153.133 344.831 161.326H325.345C327.515 143.301 342.794 131.831 366.311 131.831C389.828 131.831 405.063 143.656 405.063 165.667V202.957C405.063 207.696 406.702 208.981 410.865 208.981H414.674V209.025ZM385.577 184.622H361.572C349.57 184.622 342.839 189.184 342.839 198.617C342.839 206.456 349.393 211.904 359.934 211.904C375.966 211.904 385.577 202.249 385.577 188.254V184.622Z" fill="white"/>
<path d="M457.45 226.12L422.152 132.938H443.278L469.851 204.994L496.246 132.938H516.973L481.498 226.12H457.494H457.45Z" fill="white"/>
<path d="M617.342 209.025V226.12H607.156C594.976 226.12 590.415 220.85 590.237 211.904C584.037 220.983 574.382 227.183 559.856 227.183C539.66 227.183 525.621 217.174 525.621 199.901C525.621 180.592 539.262 170.051 565.126 170.051H588.245V164.427C588.245 154.063 580.804 147.686 568.049 147.686C556.578 147.686 548.961 153.133 547.499 161.326H528.013C530.183 143.301 545.462 131.831 568.979 131.831C592.496 131.831 607.731 143.656 607.731 165.667V202.957C607.731 207.696 609.37 208.981 613.533 208.981H617.342V209.025ZM588.2 184.622H564.196C552.194 184.622 545.462 189.184 545.462 198.617C545.462 206.456 552.017 211.904 562.557 211.904C578.59 211.904 588.2 202.249 588.2 188.254V184.622Z" fill="white"/>
<path d="M707.325 208.85V226.122H631.637V208.85H659.76V117.262L631.637 126.563V109.202L655.685 99.9897H679.424V208.894H707.369L707.325 208.85Z" fill="white"/>
<path d="M812.162 209.025V226.12H801.976C789.797 226.12 785.235 220.85 785.058 211.904C778.857 220.983 769.203 227.183 754.676 227.183C734.481 227.183 720.441 217.174 720.441 199.901C720.441 180.592 734.082 170.051 759.946 170.051H783.065V164.427C783.065 154.063 775.624 147.686 762.869 147.686C751.399 147.686 743.781 153.133 742.32 161.326H722.833C725.003 143.301 740.283 131.831 763.8 131.831C787.317 131.831 802.552 143.656 802.552 165.667V202.957C802.552 207.696 804.19 208.981 808.353 208.981H812.162V209.025ZM783.065 184.622H759.061C747.059 184.622 740.327 189.184 740.327 198.617C740.327 206.456 746.881 211.904 757.422 211.904C773.454 211.904 783.065 202.249 783.065 188.254V184.622Z" fill="white"/>
<path d="M917.394 172.974V226.12H897.553V174.79C897.553 158.226 890.466 149.147 876.427 149.147C861.679 149.147 852.777 159.865 852.777 177.89V226.12H833.113V132.938H850.209L852.379 145.117C858.003 137.854 866.772 131.831 880.944 131.831C900.786 131.831 917.349 142.548 917.349 172.974H917.394Z" fill="white"/>
<path d="M941.529 179.706C941.529 150.963 959.908 131.831 987.943 131.831C1011.77 131.831 1026.69 145.117 1030.33 166.242H1009.78C1007.21 155.303 999.413 148.571 987.588 148.571C971.955 148.571 961.547 161.504 961.547 179.706C961.547 197.908 971.91 210.442 987.588 210.442C999.236 210.442 1007.25 203.533 1009.6 192.771H1030.33C1026.87 213.896 1011.02 227.183 987.367 227.183C959.332 227.183 941.484 208.803 941.484 179.706H941.529Z" fill="white"/>
<path d="M1139.13 172.975V226.121H1119.29V174.614C1119.29 158.582 1112.21 149.148 1097.64 149.148C1083.07 149.148 1073.63 160.088 1073.63 177.714V226.121H1053.97V98.7485H1073.63V144.808C1080.01 136.792 1089.66 131.876 1102.2 131.876C1124.03 131.876 1139.13 144.808 1139.13 173.02V172.975Z" fill="white"/>
<path d="M1182.94 184.094V185.024C1183.47 200.835 1193.3 211.242 1208.58 211.242C1220.23 211.242 1229.13 205.219 1231.7 194.856H1251.36C1248.08 213.235 1232.63 227.23 1209.69 227.23C1180.59 227.23 1162.39 208.319 1162.39 179.753C1162.39 151.188 1180.59 131.878 1207.69 131.878C1234.8 131.878 1252.47 148.973 1253 176.299C1253 178.292 1252.82 181.392 1252.47 184.138H1182.94V184.094ZM1183.65 169.346H1232.58C1230.94 155.528 1221.47 147.689 1207.83 147.689C1195.65 147.689 1185.06 156.059 1183.6 169.346H1183.65Z" fill="white"/>
</g>
<defs>
<clipPath id="clip0_8943_56621">
<rect width="1253" height="226.888" fill="white" transform="translate(0 0.341797)"/>
</clipPath>
</defs>
</svg>
